<?xml version="1.0" encoding="UTF-8" standalone="no"?>
<!-- Created with Inkscape (http://www.inkscape.org/) -->

<svg
   xmlns:dc="http://purl.org/dc/elements/1.1/"
   xmlns:cc="http://creativecommons.org/ns#"
   xmlns:rdf="http://www.w3.org/1999/02/22-rdf-syntax-ns#"
   xmlns:svg="http://www.w3.org/2000/svg"
   xmlns="http://www.w3.org/2000/svg"
   xmlns:xlink="http://www.w3.org/1999/xlink"
   xmlns:sodipodi="http://sodipodi.sourceforge.net/DTD/sodipodi-0.dtd"
   xmlns:inkscape="http://www.inkscape.org/namespaces/inkscape"
   inkscape:export-ydpi="90.000000"
   inkscape:export-xdpi="90.000000"
   width="480"
   height="300"
   id="svg11300"
   sodipodi:version="0.32"
   inkscape:version="0.92.4 5da689c313, 2019-01-14"
   sodipodi:docname="regex.svg"
   inkscape:output_extension="org.inkscape.output.svg.inkscape"
   version="1.0"
   style="display:inline;enable-background:new"
   inkscape:export-filename="/home/sam/moka-next-template.png">
  <sodipodi:namedview
     stroke="#ef2929"
     fill="#f57900"
     id="base"
     pagecolor="#777777"
     bordercolor="#666666"
     borderopacity="0.25490196"
     inkscape:pageopacity="0"
     inkscape:pageshadow="2"
     inkscape:zoom="2.0000001"
     inkscape:cx="239.41516"
     inkscape:cy="123.19629"
     inkscape:current-layer="layer7"
     showgrid="false"
     inkscape:grid-bbox="true"
     inkscape:document-units="px"
     inkscape:showpageshadow="false"
     inkscape:window-width="1600"
     inkscape:window-height="843"
     inkscape:window-x="0"
     inkscape:window-y="0"
     width="400px"
     height="300px"
     inkscape:snap-nodes="true"
     inkscape:snap-bbox="true"
     gridtolerance="10000"
     inkscape:object-nodes="true"
     inkscape:snap-grids="true"
     showguides="true"
     inkscape:guide-bbox="true"
     inkscape:window-maximized="1"
     inkscape:bbox-nodes="true"
     inkscape:bbox-paths="true"
     inkscape:snap-bbox-edge-midpoints="true"
     inkscape:snap-bbox-midpoints="true">
    <inkscape:grid
       spacingy="1"
       spacingx="1"
       id="grid5883"
       type="xygrid"
       enabled="true"
       visible="true"
       empspacing="4"
       snapvisiblegridlinesonly="true"
       dotted="false"
       color="#000000"
       opacity="0.1254902"
       empcolor="#203ef3"
       empopacity="0.36470588"
       originx="0"
       originy="0" />
    <inkscape:grid
       type="xygrid"
       id="grid11592"
       empspacing="8"
       visible="true"
       enabled="false"
       spacingx="0.5"
       spacingy="0.5"
       color="#ff0000"
       opacity="0.1254902"
       empcolor="#ff0000"
       empopacity="0.25098039"
       snapvisiblegridlinesonly="true"
       dotted="true"
       originx="0"
       originy="0" />
  </sodipodi:namedview>
  <defs
     id="defs3">
    <linearGradient
       id="linearGradient975">
      <stop
         style="stop-color:#03a172;stop-opacity:1"
         offset="0"
         id="stop971" />
      <stop
         style="stop-color:#79d399;stop-opacity:1"
         offset="1"
         id="stop973" />
    </linearGradient>
    <linearGradient
       id="linearGradient969">
      <stop
         style="stop-color:#03a172;stop-opacity:1"
         offset="0"
         id="stop965" />
      <stop
         style="stop-color:#79d399;stop-opacity:1"
         offset="1"
         id="stop967" />
    </linearGradient>
    <linearGradient
       id="linearGradient963">
      <stop
         style="stop-color:#03a172;stop-opacity:1"
         offset="0"
         id="stop959" />
      <stop
         style="stop-color:#79d399;stop-opacity:1"
         offset="1"
         id="stop961" />
    </linearGradient>
    <linearGradient
       id="linearGradient957">
      <stop
         style="stop-color:#03a172;stop-opacity:1"
         offset="0"
         id="stop953" />
      <stop
         style="stop-color:#79d399;stop-opacity:1"
         offset="1"
         id="stop955" />
    </linearGradient>
    <linearGradient
       id="linearGradient951">
      <stop
         style="stop-color:#03a172;stop-opacity:1"
         offset="0"
         id="stop947" />
      <stop
         style="stop-color:#79d399;stop-opacity:1"
         offset="1"
         id="stop949" />
    </linearGradient>
    <linearGradient
       id="linearGradient945">
      <stop
         style="stop-color:#03a172;stop-opacity:1"
         offset="0"
         id="stop941" />
      <stop
         style="stop-color:#79d399;stop-opacity:1"
         offset="1"
         id="stop943" />
    </linearGradient>
    <linearGradient
       id="linearGradient942">
      <stop
         id="stop938"
         offset="0"
         style="stop-color:#03a172;stop-opacity:1" />
      <stop
         id="stop940"
         offset="1"
         style="stop-color:#79d399;stop-opacity:1" />
    </linearGradient>
    <linearGradient
       inkscape:collect="always"
       xlink:href="#linearGradient945"
       id="linearGradient6279"
       gradientUnits="userSpaceOnUse"
       gradientTransform="rotate(-90,144,156)"
       x1="35"
       y1="156"
       x2="253"
       y2="156" />
    <linearGradient
       inkscape:collect="always"
       xlink:href="#linearGradient942"
       id="linearGradient6281"
       gradientUnits="userSpaceOnUse"
       gradientTransform="rotate(-90,424,148)"
       x1="417"
       y1="148"
       x2="431"
       y2="148" />
    <linearGradient
       inkscape:collect="always"
       xlink:href="#linearGradient975"
       id="linearGradient6283"
       gradientUnits="userSpaceOnUse"
       gradientTransform="rotate(-90,428,112)"
       x1="418"
       y1="112"
       x2="438"
       y2="112" />
    <linearGradient
       inkscape:collect="always"
       xlink:href="#linearGradient969"
       id="linearGradient6285"
       gradientUnits="userSpaceOnUse"
       gradientTransform="rotate(-90,432,68)"
       x1="418"
       y1="68"
       x2="446"
       y2="68" />
    <linearGradient
       inkscape:collect="always"
       xlink:href="#linearGradient963"
       id="linearGradient6287"
       gradientUnits="userSpaceOnUse"
       gradientTransform="rotate(-90,312,244)"
       x1="292"
       y1="244"
       x2="332"
       y2="244" />
    <linearGradient
       inkscape:collect="always"
       xlink:href="#linearGradient951"
       id="linearGradient6289"
       gradientUnits="userSpaceOnUse"
       gradientTransform="rotate(-90,336,76)"
       x1="293"
       y1="76"
       x2="379"
       y2="76" />
    <linearGradient
       inkscape:collect="always"
       xlink:href="#linearGradient957"
       id="linearGradient6291"
       gradientUnits="userSpaceOnUse"
       gradientTransform="rotate(-90,320,172)"
       x1="291"
       y1="172"
       x2="349"
       y2="172" />
    <linearGradient
       id="outerBackgroundGradient-07">
      <stop
         style="stop-color:#81c784;stop-opacity:1"
         offset="0"
         id="stop3864-8-6-41" />
      <stop
         style="stop-color:#aed581;stop-opacity:1"
         offset="1"
         id="stop3866-9-1-41" />
    </linearGradient>
  </defs>
  <metadata
     id="metadata4">
    <rdf:RDF>
      <cc:Work
         rdf:about="">
        <dc:format>image/svg+xml</dc:format>
        <dc:type
           rdf:resource="http://purl.org/dc/dcmitype/StillImage" />
        <dc:creator>
          <cc:Agent>
            <dc:title>Sam Hewitt</dc:title>
          </cc:Agent>
        </dc:creator>
        <dc:source />
        <cc:license
           rdf:resource="" />
        <dc:title></dc:title>
        <dc:subject>
          <rdf:Bag />
        </dc:subject>
        <dc:date />
        <dc:rights>
          <cc:Agent>
            <dc:title />
          </cc:Agent>
        </dc:rights>
        <dc:publisher>
          <cc:Agent>
            <dc:title />
          </cc:Agent>
        </dc:publisher>
        <dc:identifier />
        <dc:relation />
        <dc:language />
        <dc:coverage />
        <dc:description />
        <dc:contributor>
          <cc:Agent>
            <dc:title />
          </cc:Agent>
        </dc:contributor>
      </cc:Work>
      <cc:Work
         rdf:about="">
        <dc:format>image/svg+xml</dc:format>
        <dc:type
           rdf:resource="http://purl.org/dc/dcmitype/StillImage" />
      </cc:Work>
    </rdf:RDF>
  </metadata>
  <g
     style="display:inline"
     inkscape:groupmode="layer"
     inkscape:label="Icon"
     id="layer1">
    <g
       style="display:none"
       inkscape:label="Baseplate"
       id="layer7"
       inkscape:groupmode="layer">
      <text
         y="19.745117"
         xml:space="preserve"
         x="15.006836"
         style="font-style:normal;font-variant:normal;font-weight:normal;font-stretch:normal;line-height:0%;font-family:'DejaVu Sans';-inkscape-font-specification:'DejaVu Sans';display:inline;fill:#000000;fill-opacity:1;stroke:none;enable-background:new"
         inkscape:label="context"
         id="context"><tspan
           style="font-style:normal;font-variant:normal;font-weight:normal;font-stretch:normal;font-size:18px;line-height:1.25;font-family:'DejaVu Sans';-inkscape-font-specification:'DejaVu Sans'"
           y="19.745117"
           x="15.006836"
           sodipodi:role="line"
           id="tspan3933">apps</tspan></text>
      <text
         y="19.745117"
         xml:space="preserve"
         x="122.48828"
         style="font-style:normal;font-variant:normal;font-weight:bold;font-stretch:normal;line-height:0%;font-family:'DejaVu Sans';-inkscape-font-specification:'DejaVu Sans Bold';text-align:start;writing-mode:lr-tb;text-anchor:start;display:inline;fill:#000000;fill-opacity:1;stroke:none;enable-background:new"
         inkscape:label="icon-name"
         id="icon-name"><tspan
           style="font-style:normal;font-variant:normal;font-weight:bold;font-stretch:normal;font-size:18px;line-height:1.25;font-family:'DejaVu Sans';-inkscape-font-specification:'DejaVu Sans Bold'"
           y="19.745117"
           x="122.48828"
           sodipodi:role="line"
           id="tspan3937">regex</tspan></text>
      <rect
         style="fill:#eeeeec;fill-opacity:1;fill-rule:nonzero;stroke:none;stroke-width:2;marker:none;visibility:visible;display:inline;overflow:visible;enable-background:accumulate"
         id="rect16x16"
         width="16"
         height="16"
         x="416"
         y="140"
         inkscape:label="16x16" />
      <rect
         style="fill:#d4d4d4;fill-opacity:1;fill-rule:nonzero;stroke:none;stroke-width:2;marker:none;visibility:visible;display:inline;overflow:visible;enable-background:accumulate"
         id="rect24x24"
         width="24"
         height="24"
         x="416"
         y="100"
         inkscape:label="24x24" />
      <rect
         style="fill:#eeeeec;fill-opacity:1;fill-rule:nonzero;stroke:none;stroke-width:2;marker:none;visibility:visible;display:inline;overflow:visible;enable-background:accumulate"
         id="rect32x32"
         width="32"
         height="32"
         x="416"
         y="52"
         inkscape:label="32x32" />
      <rect
         inkscape:label="22x22"
         y="101"
         x="417"
         height="22"
         width="22"
         id="rect22x22"
         style="fill:#eeeeec;fill-opacity:1;fill-rule:nonzero;stroke:none;stroke-width:2;marker:none;visibility:visible;display:inline;overflow:visible;enable-background:accumulate" />
      <rect
         inkscape:label="48x48"
         y="220"
         x="288"
         height="48"
         width="48"
         id="rect48x48"
         style="fill:#eeeeec;fill-opacity:1;fill-rule:nonzero;stroke:none;stroke-width:2;marker:none;visibility:visible;display:inline;overflow:visible;enable-background:accumulate" />
      <rect
         style="fill:#eeeeec;fill-opacity:1;fill-rule:nonzero;stroke:none;stroke-width:2;marker:none;visibility:visible;display:inline;overflow:visible;enable-background:accumulate"
         id="rect256x256"
         width="256"
         height="256"
         x="16"
         y="28"
         inkscape:label="256x256" />
      <rect
         style="fill:#eeeeec;fill-opacity:1;fill-rule:nonzero;stroke:none;stroke-width:2;marker:none;visibility:visible;display:inline;overflow:visible;enable-background:accumulate"
         id="rect64x64"
         width="64"
         height="64"
         x="288"
         y="140"
         inkscape:label="64x64" />
      <rect
         style="fill:#eeeeec;fill-opacity:1;fill-rule:nonzero;stroke:none;stroke-width:2;marker:none;visibility:visible;display:inline;overflow:visible;enable-background:accumulate"
         id="rect96x96"
         width="96"
         height="96"
         x="288"
         y="28"
         inkscape:label="96x96" />
    </g>
    <g
       inkscape:groupmode="layer"
       id="layer4"
       inkscape:label="Shadow"
       style="display:inline"
       sodipodi:insensitive="true">
      <rect
         ry="50"
         y="47"
         x="34"
         height="220"
         width="220"
         id="rect4114"
         style="opacity:0.1;color:#bebebe;fill:#000000;fill-opacity:1;fill-rule:nonzero;stroke:none;stroke-width:0;marker:none;visibility:visible;display:inline;overflow:visible;enable-background:accumulate" />
      <rect
         style="opacity:0.1;color:#bebebe;fill:#000000;fill-opacity:1;fill-rule:nonzero;stroke:none;stroke-width:0;marker:none;visibility:visible;display:inline;overflow:visible;enable-background:accumulate"
         id="rect4120"
         width="30"
         height="30"
         x="417"
         y="54"
         ry="7" />
      <rect
         transform="scale(1,-1)"
         ry="9"
         y="-266"
         x="291"
         height="42"
         width="42"
         id="rect4122"
         style="opacity:0.1;color:#bebebe;fill:#000000;fill-opacity:1;fill-rule:nonzero;stroke:none;stroke-width:0;marker:none;visibility:visible;display:inline;overflow:visible;enable-background:accumulate" />
      <rect
         style="opacity:0.1;color:#bebebe;fill:#000000;fill-opacity:1;fill-rule:nonzero;stroke:none;stroke-width:0;marker:none;visibility:visible;display:inline;overflow:visible;enable-background:accumulate"
         id="rect4124"
         width="88"
         height="88"
         x="292"
         y="33"
         ry="18" />
      <rect
         ry="12.5"
         y="143"
         x="290"
         height="60"
         width="60"
         id="rect4126"
         style="opacity:0.1;color:#bebebe;fill:#000000;fill-opacity:1;fill-rule:nonzero;stroke:none;stroke-width:0;marker:none;visibility:visible;display:inline;overflow:visible;enable-background:accumulate" />
      <path
         id="path4268"
         d="m 422,101 c -2.77,0 -5,2.23 -5,5 l 0,12 c 0,2.77 2.23,5 5,5 l 12,0 c 2.77,0 5,-2.23 5,-5 l 0,-12 c 0,-2.77 -2.23,-5 -5,-5 z"
         style="opacity:0.1;color:#bebebe;fill:#000000;fill-opacity:1;fill-rule:nonzero;stroke:none;stroke-width:0;marker:none;visibility:visible;display:inline;overflow:visible;enable-background:accumulate"
         inkscape:connector-curvature="0"
         sodipodi:nodetypes="sssssssss" />
      <path
         id="path4270"
         d="m 419,140 c -1.662,0 -3,1.338 -3,3 l 0,10 c 0,1.662 1.338,3 3,3 l 10,0 c 1.662,0 3,-1.338 3,-3 l 0,-10 c 0,-1.662 -1.338,-3 -3,-3 z"
         style="opacity:0.1;color:#bebebe;fill:#000000;fill-opacity:1;fill-rule:nonzero;stroke:none;stroke-width:0;marker:none;visibility:visible;display:inline;overflow:visible;enable-background:accumulate"
         inkscape:connector-curvature="0"
         sodipodi:nodetypes="sssssssss" />
    </g>
    <g
       inkscape:groupmode="layer"
       id="layer2"
       inkscape:label="Background"
       style="display:inline">
      <path
         style="color:#bebebe;fill:url(#linearGradient6279);fill-opacity:1.0;fill-rule:nonzero;stroke:none;stroke-width:2;marker:none;visibility:visible;display:inline;overflow:visible;enable-background:accumulate"
         d="M 84 46.5 C 56.568735 46.5 34.5 68.568732 34.5 96 L 34.5 216 C 34.5 243.43127 56.568735 265.5 84 265.5 L 204 265.5 C 231.43127 265.5 253.5 243.43127 253.5 216 L 253.5 96 C 253.5 68.568732 231.43127 46.5 204 46.5 L 84 46.5 z "
         id="path4200" />
      <path
         style="color:#bebebe;fill:url(#linearGradient6281);fill-opacity:1.0;fill-rule:nonzero;stroke:none;stroke-width:2;marker:none;visibility:visible;display:inline;overflow:visible;enable-background:accumulate"
         d="M 419 140.5 C 417.6156 140.5 416.5 141.6156 416.5 143 L 416.5 153 C 416.5 154.3844 417.6156 155.5 419 155.5 L 429 155.5 C 430.3844 155.5 431.5 154.3844 431.5 153 L 431.5 143 C 431.5 141.6156 430.3844 140.5 429 140.5 L 419 140.5 z "
         id="path4202" />
      <path
         style="color:#bebebe;fill:url(#linearGradient6283);fill-opacity:1.0;fill-rule:nonzero;stroke:none;stroke-width:2;marker:none;visibility:visible;display:inline;overflow:visible;enable-background:accumulate"
         d="M 422 101.5 C 419.50301 101.5 417.5 103.50301 417.5 106 L 417.5 118 C 417.5 120.49699 419.50301 122.5 422 122.5 L 434 122.5 C 436.49699 122.5 438.5 120.49699 438.5 118 L 438.5 106 C 438.5 103.50301 436.49699 101.5 434 101.5 L 422 101.5 z "
         id="path4204" />
      <path
         style="color:#bebebe;fill:url(#linearGradient6285);fill-opacity:1.0;fill-rule:nonzero;stroke:none;stroke-width:2;marker:none;visibility:visible;display:inline;overflow:visible;enable-background:accumulate"
         d="M 424 53.5 C 420.39346 53.5 417.5 56.393464 417.5 60 L 417.5 76 C 417.5 79.606536 420.39346 82.5 424 82.5 L 440 82.5 C 443.60654 82.5 446.5 79.606536 446.5 76 L 446.5 60 C 446.5 56.393464 443.60654 53.5 440 53.5 L 424 53.5 z "
         id="path4206" />
      <path
         style="color:#bebebe;fill:url(#linearGradient6287);fill-opacity:1.0;fill-rule:nonzero;stroke:none;stroke-width:2;marker:none;visibility:visible;display:inline;overflow:visible;enable-background:accumulate"
         d="M 300 223.5 C 295.28469 223.5 291.5 227.28469 291.5 232 L 291.5 256 C 291.5 260.71531 295.28469 264.5 300 264.5 L 324 264.5 C 328.71531 264.5 332.5 260.71531 332.5 256 L 332.5 232 C 332.5 227.28469 328.71531 223.5 324 223.5 L 300 223.5 z "
         id="path4208" />
      <path
         style="color:#bebebe;fill:url(#linearGradient6289);fill-opacity:1.0;fill-rule:nonzero;stroke:none;stroke-width:2;marker:none;visibility:visible;display:inline;overflow:visible;enable-background:accumulate"
         d="M 310 32.5 C 300.29745 32.5 292.5 40.297452 292.5 50 L 292.5 102 C 292.5 111.70255 300.29745 119.5 310 119.5 L 362 119.5 C 371.70255 119.5 379.5 111.70255 379.5 102 L 379.5 50 C 379.5 40.297452 371.70255 32.5 362 32.5 L 310 32.5 z "
         id="path4210" />
      <path
         style="color:#bebebe;fill:url(#linearGradient6291);fill-opacity:1.0;fill-rule:nonzero;stroke:none;stroke-width:2;marker:none;visibility:visible;display:inline;overflow:visible;enable-background:accumulate"
         d="M 302.5 142.5 C 295.84498 142.5 290.5 147.84498 290.5 154.5 L 290.5 189.5 C 290.5 196.15502 295.84498 201.5 302.5 201.5 L 337.5 201.5 C 344.15502 201.5 349.5 196.15502 349.5 189.5 L 349.5 154.5 C 349.5 147.84498 344.15502 142.5 337.5 142.5 L 302.5 142.5 z "
         id="path4212" />
      <path
         inkscape:connector-curvature="0"
         style="fill:#3f3f3f;stroke-width:15.3804512"
         d="M 79.950694,118.49998 58.999998,198.9164 h 8.662031 l 20.754635,-80.41642 z"
         id="path4" />
      <path
         inkscape:connector-curvature="0"
         style="fill:#ffffff;stroke-width:15.3804512"
         d="m 132.54166,198.9164 v -16.08329 h 14.70833 v 16.08329 z"
         id="path6" />
      <path
         inkscape:connector-curvature="0"
         style="fill:#3f3f3f;stroke-width:15.3804512"
         d="m 182.90902,118.49998 -20.95069,80.41642 h 8.66203 l 20.75463,-80.41642 z"
         id="path8" />
      <path
         inkscape:connector-curvature="0"
         style="fill:#3f3f3f;stroke-width:15.3804512"
         d="m 213.43749,134.58327 c -12.18482,0 -22.0625,10.80121 -22.0625,24.12492 0,13.32387 9.87768,24.12492 22.0625,24.12492 4.75403,-0.007 9.37877,-1.69244 13.18573,-4.806 v 4.02082 c 0,10.88211 -4.27792,22.64204 -12.86979,22.64204 -3.19392,0 -5.77597,-0.68836 -7.7563,-2.10466 -1.94841,-1.38155 -6.1647,-3.37732 -6.73965,-5.96834 l -8.67556,1.35099 c 0.95898,4.42194 6.05748,11.03587 9.41127,13.41957 3.3535,2.41845 7.87705,3.61247 13.53049,3.61247 14.46874,0 21.97631,-17.41836 21.97631,-33.17177 v -23.12004 -11.74835 -12.37657 h -8.18725 c -0.11766,0.2332 -0.25004,2.6309 -0.37359,5.08891 -3.8602,-3.2863 -8.60967,-5.07637 -13.50181,-5.08891 z m 0,12.06246 c 6.09234,0 11.03125,5.4006 11.03125,12.06246 0,6.66202 -4.93891,12.06246 -11.03125,12.06246 -6.09248,0 -11.03125,-5.40044 -11.03125,-12.06246 0,-6.66186 4.93877,-12.06246 11.03125,-12.06246 z"
         id="path10" />
      <path
         inkscape:connector-curvature="0"
         style="fill:#ffffff;stroke-width:15.3804512"
         d="M 96.882633,118.49998 117.83333,198.9164 H 109.1713 L 88.416664,118.49998 Z"
         id="path12" />
      <path
         inkscape:connector-curvature="0"
         style="display:inline;fill:#3f3f3f;stroke-width:6.35745335;enable-background:new"
         d="m 308.73713,60.15 -8.48709,33.916556 h 3.50899 L 312.16668,60.15 Z"
         id="path4-3" />
      <path
         inkscape:connector-curvature="0"
         style="display:inline;fill:#ffffff;stroke-width:6.35745335;enable-background:new"
         d="m 330.04169,94.066556 v -6.78331 H 336 v 6.78331 z"
         id="path6-6" />
      <path
         inkscape:connector-curvature="0"
         style="display:inline;fill:#3f3f3f;stroke-width:6.35745335;enable-background:new"
         d="m 350.44546,60.15 -8.48709,33.916556 h 3.50895 L 353.87501,60.15 Z"
         id="path8-7" />
      <path
         inkscape:connector-curvature="0"
         style="display:inline;fill:#3f3f3f;stroke-width:6.35745335;enable-background:new"
         d="m 362.81251,66.933302 c -4.93604,0 -8.9375,4.555534 -8.9375,10.174963 0,5.619496 4.00146,10.174981 8.9375,10.174981 1.92584,-0.0039 3.79932,-0.713817 5.34153,-2.02699 v 1.69582 c 0,4.589649 -1.733,9.549556 -5.21355,9.549556 -1.29385,0 -2.33981,-0.290335 -3.14206,-0.887672 -0.78931,-0.582684 -2.49732,-1.4244 -2.73021,-2.51721 l -3.51445,0.5698 c 0.38836,1.864977 2.45387,4.6544 3.8125,5.65975 1.35848,1.02019 3.19096,1.5237 5.48115,1.5237 5.86128,0 8.9026,-7.3464 8.9026,-13.99058 v -9.751155 -4.954988 -5.219975 h -3.31663 c -0.0479,0.09838 -0.10117,1.109622 -0.15152,2.14632 -1.56375,-1.386049 -3.48776,-2.141032 -5.46954,-2.14632 z m 0,5.087481 c 2.46803,0 4.46875,2.277779 4.46875,5.087482 0,2.809803 -2.00072,5.0875 -4.46875,5.0875 -2.46807,0 -4.46874,-2.277697 -4.46874,-5.0875 0,-2.809703 2.00067,-5.087482 4.46874,-5.087482 z"
         id="path10-5" />
      <path
         inkscape:connector-curvature="0"
         style="display:inline;fill:#ffffff;stroke-width:6.35745335;enable-background:new"
         d="m 315.59627,60.15 8.48709,33.916556 h -3.50899 L 312.16668,60.15 Z"
         id="path12-3" />
      <path
         inkscape:connector-curvature="0"
         style="display:inline;fill:#3f3f3f;stroke-width:4.56328154;enable-background:new"
         d="M 300.18682,160.5 294.05,184.66661 h 2.53723 L 302.66661,160.5 Z"
         id="path4-3-5" />
      <path
         inkscape:connector-curvature="0"
         style="display:inline;fill:#ffffff;stroke-width:4.56328154;enable-background:new"
         d="m 315.59163,184.66661 v -4.83341 h 4.30835 v 4.83341 z"
         id="path6-6-6" />
      <path
         inkscape:connector-curvature="0"
         style="display:inline;fill:#3f3f3f;stroke-width:4.56328154;enable-background:new"
         d="m 330.3452,160.5 -6.13683,24.16661 h 2.53723 L 332.82499,160.5 Z"
         id="path8-7-2" />
      <path
         inkscape:connector-curvature="0"
         style="display:inline;fill:#3f3f3f;stroke-width:4.56328154;enable-background:new"
         d="m 339.28749,165.33326 c -3.56917,0 -6.4625,3.24601 -6.4625,7.24998 0,4.00416 2.89333,7.24996 6.4625,7.24996 1.39257,-0.002 2.74725,-0.50852 3.86235,-1.44429 v 1.20842 c 0,3.27024 -1.25314,6.80426 -3.76983,6.80426 -0.93555,0 -1.69188,-0.20677 -2.27187,-0.63244 -0.57079,-0.41513 -1.80579,-1.015 -1.97426,-1.79357 l -2.54116,0.406 c 0.28085,1.32886 1.77435,3.3164 2.75675,4.03276 0.98228,0.72686 2.30723,1.08566 3.96324,1.08566 4.23814,0 6.43729,-5.23454 6.43729,-9.96875 v -6.94801 -3.53047 -3.71951 h -2.39816 c -0.0342,0.0709 -0.0737,0.79071 -0.10959,1.52938 -1.13066,-0.98752 -2.52189,-1.52557 -3.9549,-1.52938 z m 0,3.62498 c 1.78461,0 3.23125,1.62307 3.23125,3.625 0,2.00212 -1.44664,3.625 -3.23125,3.625 -1.78463,0 -3.23125,-1.62288 -3.23125,-3.625 0,-2.00193 1.44662,-3.625 3.23125,-3.625 z"
         id="path10-5-9" />
      <path
         inkscape:connector-curvature="0"
         style="display:inline;fill:#ffffff;stroke-width:4.56328154;enable-background:new"
         d="m 305.14654,160.5 6.13683,24.16661 h -2.53736 L 302.66661,160.5 Z"
         id="path12-3-1" />
      <path
         inkscape:connector-curvature="0"
         style="display:inline;fill:#3f3f3f;stroke-width:2.9500587;enable-background:new"
         d="m 298.23288,237.63326 -4.20688,14.73347 h 1.73931 l 4.16751,-14.73347 z"
         id="path4-3-5-2" />
      <path
         inkscape:connector-curvature="0"
         style="display:inline;fill:#ffffff;stroke-width:2.9500587;enable-background:new"
         d="m 308.79312,252.36673 v -2.94675 h 2.95344 v 2.94675 z"
         id="path6-6-6-7" />
      <path
         inkscape:connector-curvature="0"
         style="display:inline;fill:#3f3f3f;stroke-width:2.9500587;enable-background:new"
         d="m 318.90693,237.63326 -4.20689,14.73347 h 1.73931 l 4.16752,-14.73347 z"
         id="path8-7-2-0" />
      <path
         inkscape:connector-curvature="0"
         style="display:inline;fill:#3f3f3f;stroke-width:2.9500587;enable-background:new"
         d="m 325.03702,240.57992 c -2.44673,0 -4.43015,1.97896 -4.43015,4.42003 0,2.44119 1.98343,4.42003 4.43015,4.42003 0.95462,-0.001 1.88328,-0.31003 2.6477,-0.88053 v 0.73673 c 0,1.99374 -0.85905,4.1483 -2.58428,4.1483 -0.64133,0 -1.15981,-0.12606 -1.5574,-0.38558 -0.39129,-0.25308 -1.2379,-0.6188 -1.35339,-1.09347 l -1.74201,0.24752 c 0.19253,0.81016 1.21635,2.0219 1.8898,2.45862 0.67338,0.44314 1.58165,0.66189 2.71686,0.66189 2.90532,0 4.41287,-3.1913 4.41287,-6.07757 v -4.23594 -2.15239 -2.26764 h -1.64398 c -0.0235,0.0432 -0.0505,0.48206 -0.0751,0.9324 -0.77508,-0.60204 -1.7288,-0.93008 -2.71115,-0.9324 z m 0,2.21002 c 1.22338,0 2.21507,0.98952 2.21507,2.21001 0,1.22062 -0.99169,2.21003 -2.21507,2.21003 -1.22339,0 -2.21508,-0.98941 -2.21508,-2.21003 0,-1.22049 0.99169,-2.21001 2.21508,-2.21001 z"
         id="path10-5-9-9" />
      <path
         inkscape:connector-curvature="0"
         style="display:inline;fill:#ffffff;stroke-width:2.9500587;enable-background:new"
         d="m 301.63286,237.63326 4.20689,14.73347 h -1.7394 l -4.16753,-14.73347 z"
         id="path12-3-1-3" />
      <path
         inkscape:connector-curvature="0"
         style="display:inline;fill:#3f3f3f;stroke-width:2.11723518;enable-background:new"
         d="M 422.02634,62.510044 418.959,72.918328 h 1.26808 l 3.03858,-10.408284 z"
         id="path4-3-5-2-6" />
      <path
         inkscape:connector-curvature="0"
         style="display:inline;fill:#ffffff;stroke-width:2.11723518;enable-background:new"
         d="m 429.72591,72.918328 v -2.081701 h 2.15357 v 2.081701 z"
         id="path6-6-6-7-0" />
      <path
         inkscape:connector-curvature="0"
         style="display:inline;fill:#3f3f3f;stroke-width:2.11723518;enable-background:new"
         d="m 437.10043,62.510044 -3.06735,10.408284 h 1.26812 l 3.03854,-10.408284 z"
         id="path8-7-2-0-6" />
      <path
         inkscape:connector-curvature="0"
         style="display:inline;fill:#3f3f3f;stroke-width:2.11723518;enable-background:new"
         d="m 441.56987,64.591659 c -1.78413,0 -3.23013,1.398011 -3.23013,3.122491 0,1.724536 1.44601,3.122477 3.23013,3.122477 0.69619,-7.19e-4 1.37333,-0.219026 1.93057,-0.622037 v 0.520457 c 0,1.408429 -0.62654,2.930499 -1.88443,2.930499 -0.46757,0 -0.8457,-0.08904 -1.13533,-0.272392 -0.28535,-0.178779 -0.90252,-0.437121 -0.9871,-0.772464 l -1.26987,0.174875 c 0.14051,0.572314 0.88688,1.428326 1.37793,1.736842 C 440.09262,74.845467 440.75459,75 441.58235,75 443.70064,75 444.8,72.745531 444.8,70.706586 v -2.992436 -1.520541 -1.60195 h -1.19853 c -0.0157,0.03037 -0.038,0.340558 -0.0559,0.658682 -0.56491,-0.425303 -1.26039,-0.657036 -1.97676,-0.658682 z m 0,1.561267 c 0.89217,0 1.61506,0.699019 1.61506,1.561224 0,0.862291 -0.72289,1.561233 -1.61506,1.561233 -0.89218,0 -1.61507,-0.698942 -1.61507,-1.561233 0,-0.862205 0.72289,-1.561224 1.61507,-1.561224 z"
         id="path10-5-9-9-2" />
      <path
         inkscape:connector-curvature="0"
         style="display:inline;fill:#ffffff;stroke-width:2.11723518;enable-background:new"
         d="m 424.50548,62.510044 3.06735,10.408284 h -1.26853 l -3.03864,-10.408284 z"
         id="path12-3-1-3-6" />
      <path
         inkscape:connector-curvature="0"
         style="display:inline;fill:#3f3f3f;stroke-width:1.50273573;enable-background:new"
         d="m 421.23609,108.13496 -2.17709,7.38767 h 0.89999 l 2.15659,-7.38767 z"
         id="path4-3-5-2-6-1" />
      <path
         inkscape:connector-curvature="0"
         style="display:inline;fill:#ffffff;stroke-width:1.50273573;enable-background:new"
         d="m 426.70083,115.52263 v -1.47772 h 1.52865 v 1.47772 z"
         id="path6-6-6-7-0-8" />
      <path
         inkscape:connector-curvature="0"
         style="display:inline;fill:#3f3f3f;stroke-width:1.50273573;enable-background:new"
         d="m 431.93526,108.13496 -2.1771,7.38767 h 0.90003 l 2.15655,-7.38767 z"
         id="path8-7-2-0-6-7" />
      <path
         inkscape:connector-curvature="0"
         style="display:inline;fill:#3f3f3f;stroke-width:1.50273573;enable-background:new"
         d="m 435.10737,109.6126 c -1.26644,0 -2.29263,0.99225 -2.29263,2.21616 0,1.22393 1.02619,2.21615 2.29263,2.21615 0.49427,-5.6e-4 0.97483,-0.15531 1.37032,-0.44133 v 0.36924 c 0,0.99958 -0.44488,2.07989 -1.33766,2.07989 -0.33184,0 -0.6003,-0.0633 -0.80573,-0.19313 -0.20247,-0.12696 -0.64051,-0.3103 -0.70062,-0.54828 l -0.90122,0.12401 c 0.0997,0.4064 0.62947,1.01374 0.97802,1.23284 0.34848,0.22224 0.81824,0.33185 1.40569,0.33185 1.50342,0 2.28383,-1.60025 2.28383,-3.04736 v -2.12388 -1.07915 -1.13701 h -0.8506 c -0.0104,0.0224 -0.0274,0.24161 -0.0403,0.46749 -0.40111,-0.30186 -0.89466,-0.46647 -1.40306,-0.46749 z m 0,1.10816 c 0.63328,0 1.14631,0.49597 1.14631,1.108 0,0.61211 -0.51303,1.10803 -1.14631,1.10803 -0.63327,0 -1.14632,-0.49592 -1.14632,-1.10803 0,-0.61203 0.51305,-1.108 1.14632,-1.108 z"
         id="path10-5-9-9-2-9" />
      <path
         inkscape:connector-curvature="0"
         style="display:inline;fill:#ffffff;stroke-width:1.50273573;enable-background:new"
         d="m 422.99581,108.13496 2.1771,7.38767 h -0.90048 l -2.15685,-7.38767 z"
         id="path12-3-1-3-6-2" />
      <path
         inkscape:connector-curvature="0"
         style="display:inline;fill:#3f3f3f;stroke-width:1.06029677;enable-background:new"
         d="m 419.10511,145.28697 -1.53611,5.21262 h 0.63502 l 1.52161,-5.21262 z"
         id="path4-3-5-2-6-1-0" />
      <path
         inkscape:connector-curvature="0"
         style="display:inline;fill:#ffffff;stroke-width:1.06029677;enable-background:new"
         d="m 422.96087,150.49959 v -1.04265 h 1.07862 v 1.04265 z"
         id="path6-6-6-7-0-8-2" />
      <path
         inkscape:connector-curvature="0"
         style="display:inline;fill:#3f3f3f;stroke-width:1.06029677;enable-background:new"
         d="m 426.65424,145.28697 -1.5361,5.21262 h 0.635 l 1.52161,-5.21262 z"
         id="path8-7-2-0-6-7-3" />
      <path
         inkscape:connector-curvature="0"
         style="display:inline;fill:#3f3f3f;stroke-width:1.06029677;enable-background:new"
         d="m 428.89238,146.32961 c -0.89358,0 -1.61764,0.70011 -1.61764,1.56367 0,0.86358 0.72406,1.56366 1.61764,1.56366 0.34876,-3.9e-4 0.68781,-0.10955 0.9669,-0.31139 v 0.26053 c 0,0.70528 -0.31396,1.46751 -0.94386,1.46751 -0.23416,0 -0.42356,-0.0449 -0.5685,-0.13624 -0.14283,-0.0895 -0.45194,-0.21894 -0.49434,-0.38688 l -0.63585,0.0875 c 0.0704,0.28681 0.44413,0.71528 0.69004,0.86992 0.24588,0.15677 0.57733,0.23411 0.99181,0.23411 1.06079,0 1.61143,-1.1291 1.61143,-2.15015 v -1.49856 -0.7614 -0.80227 h -0.60015 c -0.01,0.0158 -0.0191,0.17043 -0.0285,0.32989 -0.28306,-0.21303 -0.63128,-0.32916 -0.98996,-0.32989 z m 0,0.7819 c 0.44682,0 0.8088,0.34993 0.8088,0.78177 0,0.43189 -0.36198,0.7818 -0.8088,0.7818 -0.44682,0 -0.80883,-0.34991 -0.80883,-0.7818 0,-0.43184 0.36201,-0.78177 0.80883,-0.78177 z"
         id="path10-5-9-9-2-9-7" />
      <path
         inkscape:connector-curvature="0"
         style="display:inline;fill:#ffffff;stroke-width:1.06029677;enable-background:new"
         d="m 420.34677,145.28697 1.53611,5.21262 h -0.6354 l -1.52186,-5.21262 z"
         id="path12-3-1-3-6-2-5" />
    </g>
    <g
       inkscape:groupmode="layer"
       id="layer6"
       inkscape:label="Symbols"
       style="display:inline" />
    <g
       inkscape:groupmode="layer"
       id="layer5"
       inkscape:label="Highlights"
       style="display:inline"
       sodipodi:insensitive="true">
      <path
         style="opacity:0.12999998;color:#bebebe;fill:#ffffff;fill-opacity:1;fill-rule:nonzero;stroke:none;stroke-width:0;marker:none;visibility:visible;display:inline;overflow:visible;enable-background:accumulate"
         d="M 84,47 C 56.836703,47 35,68.836703 35,96 l 0,1 C 35,69.836703 56.836703,48 84,48 l 120,0 c 27.1633,0 49,21.836703 49,49 l 0,-1 C 253,68.836703 231.1633,47 204,47 L 84,47 z"
         id="rect3894"
         inkscape:connector-curvature="0" />
      <path
         style="opacity:0.12999998;color:#bebebe;fill:#ffffff;fill-opacity:1;fill-rule:nonzero;stroke:none;stroke-width:0;marker:none;visibility:visible;display:inline;overflow:visible;enable-background:accumulate"
         d="m 419,141 c -1.1253,0 -2,0.8747 -2,2 l 0,1 c 0,-1.1253 0.8747,-2 2,-2 l 10,0 c 1.1253,0 2,0.8747 2,2 l 0,-1 c 0,-1.1253 -0.8747,-2 -2,-2 l -10,0 z"
         id="rect3896"
         inkscape:connector-curvature="0" />
      <path
         style="opacity:0.12999998;color:#bebebe;fill:#ffffff;fill-opacity:1;fill-rule:nonzero;stroke:none;stroke-width:0;marker:none;visibility:visible;display:inline;overflow:visible;enable-background:accumulate"
         d="m 422,102 c -2.2333,0 -4,1.7667 -4,4 l 0,1 c 0,-2.2333 1.7667,-4 4,-4 l 12,0 c 2.2333,0 4,1.7667 4,4 l 0,-1 c 0,-2.2333 -1.7667,-4 -4,-4 l -12,0 z"
         id="rect3898"
         inkscape:connector-curvature="0" />
      <path
         style="opacity:0.12999998;color:#bebebe;fill:#ffffff;fill-opacity:1;fill-rule:nonzero;stroke:none;stroke-width:0;marker:none;visibility:visible;display:inline;overflow:visible;enable-background:accumulate"
         d="m 424,54 c -3.3413,0 -6,2.658703 -6,6 l 0,1 c 0,-3.341297 2.6587,-6 6,-6 l 16,0 c 3.3413,0 6,2.658703 6,6 l 0,-1 c 0,-3.341297 -2.6587,-6 -6,-6 l -16,0 z"
         id="rect3900"
         inkscape:connector-curvature="0" />
      <path
         style="opacity:0.12999998;color:#bebebe;fill:#ffffff;fill-opacity:1;fill-rule:nonzero;stroke:none;stroke-width:0;marker:none;visibility:visible;display:inline;overflow:visible;enable-background:accumulate"
         d="m 300,224 c -4.4493,0 -8,3.5507 -8,8 l 0,1 c 0,-4.4493 3.5507,-8 8,-8 l 24,0 c 4.4493,0 8,3.5507 8,8 l 0,-1 c 0,-4.4493 -3.5507,-8 -8,-8 l -24,0 z"
         id="rect3902"
         inkscape:connector-curvature="0" />
      <path
         style="opacity:0.12999998;color:#bebebe;fill:#ffffff;fill-opacity:1;fill-rule:nonzero;stroke:none;stroke-width:0;marker:none;visibility:visible;display:inline;overflow:visible;enable-background:accumulate"
         d="m 310,33 c -9.4353,0 -17,7.564703 -17,17 l 0,1 c 0,-9.435297 7.5647,-17 17,-17 l 52,0 c 9.4353,0 17,7.564703 17,17 l 0,-1 c 0,-9.435297 -7.5647,-17 -17,-17 l -52,0 z"
         id="rect3904"
         inkscape:connector-curvature="0" />
      <path
         style="opacity:0.12999998;color:#bebebe;fill:#ffffff;fill-opacity:1;fill-rule:nonzero;stroke:none;stroke-width:0;marker:none;visibility:visible;display:inline;overflow:visible;enable-background:accumulate"
         d="m 302.5,143 c -6.3883,0 -11.5,5.1117 -11.5,11.5 l 0,1 c 0,-6.3883 5.1117,-11.5 11.5,-11.5 l 35,0 c 6.3883,0 11.5,5.1117 11.5,11.5 l 0,-1 c 0,-6.3883 -5.1117,-11.5 -11.5,-11.5 l -35,0 z"
         id="rect3906"
         inkscape:connector-curvature="0" />
      <path
         id="path4085"
         d="m 204,266 c 27.1633,0 49,-21.8367 49,-49 l 0,-1 c 0,27.1633 -21.8367,49 -49,49 L 84,265 C 56.8367,265 35,243.1633 35,216 l 0,1 c 0,27.1633 21.8367,49 49,49 l 120,0 z"
         style="opacity:0.5;color:#bebebe;fill:#000000;fill-opacity:1;fill-rule:nonzero;stroke:none;stroke-width:0;marker:none;visibility:visible;display:inline;overflow:visible;enable-background:accumulate"
         inkscape:connector-curvature="0" />
      <path
         id="path4087"
         d="m 429,156 c 1.1253,0 2,-0.8747 2,-2 l 0,-1 c 0,1.1253 -0.8747,2 -2,2 l -10,0 c -1.1253,0 -2,-0.8747 -2,-2 l 0,1 c 0,1.1253 0.8747,2 2,2 l 10,0 z"
         style="opacity:0.3;color:#bebebe;fill:#000000;fill-opacity:1;fill-rule:nonzero;stroke:none;stroke-width:0;marker:none;visibility:visible;display:inline;overflow:visible;enable-background:accumulate"
         inkscape:connector-curvature="0" />
      <path
         id="path4089"
         d="m 434,123 c 2.2333,0 4,-1.7667 4,-4 l 0,-1 c 0,2.2333 -1.7667,4 -4,4 l -12,0 c -2.2333,0 -4,-1.7667 -4,-4 l 0,1 c 0,2.2333 1.7667,4 4,4 l 12,0 z"
         style="opacity:0.3;color:#bebebe;fill:#000000;fill-opacity:1;fill-rule:nonzero;stroke:none;stroke-width:0;marker:none;visibility:visible;display:inline;overflow:visible;enable-background:accumulate"
         inkscape:connector-curvature="0" />
      <path
         id="path4091"
         d="m 440,83 c 3.3413,0 6,-2.6587 6,-6 l 0,-1 c 0,3.3413 -2.6587,6 -6,6 l -16,0 c -3.3413,0 -6,-2.6587 -6,-6 l 0,1 c 0,3.3413 2.6587,6 6,6 l 16,0 z"
         style="opacity:0.5;color:#bebebe;fill:#000000;fill-opacity:1;fill-rule:nonzero;stroke:none;stroke-width:0;marker:none;visibility:visible;display:inline;overflow:visible;enable-background:accumulate"
         inkscape:connector-curvature="0" />
      <path
         id="path4093"
         d="m 324,265 c 4.4493,0 8,-3.5507 8,-8 l 0,-1 c 0,4.4493 -3.5507,8 -8,8 l -24,0 c -4.4493,0 -8,-3.5507 -8,-8 l 0,1 c 0,4.4493 3.5507,8 8,8 l 24,0 z"
         style="opacity:0.5;color:#bebebe;fill:#000000;fill-opacity:1;fill-rule:nonzero;stroke:none;stroke-width:0;marker:none;visibility:visible;display:inline;overflow:visible;enable-background:accumulate"
         inkscape:connector-curvature="0" />
      <path
         id="path4095"
         d="m 362,120 c 9.4353,0 17,-7.5647 17,-17 l 0,-1 c 0,9.4353 -7.5647,17 -17,17 l -52,0 c -9.4353,0 -17,-7.5647 -17,-17 l 0,1 c 0,9.4353 7.5647,17 17,17 l 52,0 z"
         style="opacity:0.5;color:#bebebe;fill:#000000;fill-opacity:1;fill-rule:nonzero;stroke:none;stroke-width:0;marker:none;visibility:visible;display:inline;overflow:visible;enable-background:accumulate"
         inkscape:connector-curvature="0" />
      <path
         id="path4097"
         d="m 337.5,202 c 6.3883,0 11.5,-5.1117 11.5,-11.5 l 0,-1 c 0,6.3883 -5.1117,11.5 -11.5,11.5 l -35,0 c -6.3883,0 -11.5,-5.1117 -11.5,-11.5 l 0,1 c 0,6.3883 5.1117,11.5 11.5,11.5 l 35,0 z"
         style="opacity:0.5;color:#bebebe;fill:#000000;fill-opacity:1;fill-rule:nonzero;stroke:none;stroke-width:0;marker:none;visibility:visible;display:inline;overflow:visible;enable-background:accumulate"
         inkscape:connector-curvature="0" />
      <path
         inkscape:connector-curvature="0"
         id="path4280"
         d="M 84,265 C 56.836703,265 35,243.1633 35,216 l 0,-1 c 0,27.1633 21.836703,49 49,49 l 120,0 c 27.1633,0 49,-21.8367 49,-49 l 0,1 c 0,27.1633 -21.8367,49 -49,49 l -120,0 z"
         style="opacity:0.1;color:#bebebe;fill:#ffffff;fill-opacity:1;fill-rule:nonzero;stroke:none;stroke-width:0;marker:none;visibility:visible;display:inline;overflow:visible;enable-background:accumulate" />
      <path
         style="opacity:0.1;color:#bebebe;fill:#ffffff;fill-opacity:1;fill-rule:nonzero;stroke:none;stroke-width:0;marker:none;visibility:visible;display:inline;overflow:visible;enable-background:accumulate"
         d="m 300,264 c -4.4493,0 -8,-3.5507 -8,-8 l 0,-1 c 0,4.4493 3.5507,8 8,8 l 24,0 c 4.4493,0 8,-3.5507 8,-8 l 0,1 c 0,4.4493 -3.5507,8 -8,8 l -24,0 z"
         id="path4294"
         inkscape:connector-curvature="0" />
      <path
         style="opacity:0.1;color:#bebebe;fill:#ffffff;fill-opacity:1;fill-rule:nonzero;stroke:none;stroke-width:0;marker:none;visibility:visible;display:inline;overflow:visible;enable-background:accumulate"
         d="m 302.5,201 c -6.3883,0 -11.5,-5.1117 -11.5,-11.5 l 0,-1 c 0,6.3883 5.1117,11.5 11.5,11.5 l 35,0 c 6.3883,0 11.5,-5.1117 11.5,-11.5 l 0,1 c 0,6.3883 -5.1117,11.5 -11.5,11.5 l -35,0 z"
         id="path4296"
         inkscape:connector-curvature="0" />
      <path
         style="opacity:0.1;color:#bebebe;fill:#ffffff;fill-opacity:1;fill-rule:nonzero;stroke:none;stroke-width:0;marker:none;visibility:visible;display:inline;overflow:visible;enable-background:accumulate"
         d="m 310,119 c -9.4353,0 -17,-7.5647 -17,-17 l 0,-1 c 0,9.4353 7.5647,17 17,17 l 52,0 c 9.4353,0 17,-7.5647 17,-17 l 0,1 c 0,9.4353 -7.5647,17 -17,17 l -52,0 z"
         id="path4298"
         inkscape:connector-curvature="0" />
      <path
         style="opacity:0.1;color:#bebebe;fill:#ffffff;fill-opacity:1;fill-rule:nonzero;stroke:none;stroke-width:0;marker:none;visibility:visible;display:inline;overflow:visible;enable-background:accumulate"
         d="m 424,82 c -3.3413,0 -6,-2.658703 -6,-6 l 0,-1 c 0,3.341297 2.6587,6 6,6 l 16,0 c 3.3413,0 6,-2.658703 6,-6 l 0,1 c 0,3.341297 -2.6587,6 -6,6 l -16,0 z"
         id="path4300"
         inkscape:connector-curvature="0" />
      <path
         style="opacity:0.1;color:#bebebe;fill:#ffffff;fill-opacity:1;fill-rule:nonzero;stroke:none;stroke-width:0;marker:none;visibility:visible;display:inline;overflow:visible;enable-background:accumulate"
         d="m 422,122 c -2.2333,0 -4,-1.7667 -4,-4 l 0,-1 c 0,2.2333 1.7667,4 4,4 l 12,0 c 2.2333,0 4,-1.7667 4,-4 l 0,1 c 0,2.2333 -1.7667,4 -4,4 l -12,0 z"
         id="path4302"
         inkscape:connector-curvature="0" />
      <path
         style="opacity:0.1;color:#bebebe;fill:#ffffff;fill-opacity:1;fill-rule:nonzero;stroke:none;stroke-width:0;marker:none;visibility:visible;display:inline;overflow:visible;enable-background:accumulate"
         d="m 419,154.5 c -1.1253,0 -2,-0.8747 -2,-2 l 0,-1 c 0,1.1253 0.8747,2 2,2 l 10,0 c 1.1253,0 2,-0.8747 2,-2 l 0,1 c 0,1.1253 -0.8747,2 -2,2 l -10,0 z"
         id="path4304"
         inkscape:connector-curvature="0" />
    </g>
    <g
       inkscape:groupmode="layer"
       id="layer3"
       inkscape:label="Border"
       style="display:inline"
       sodipodi:insensitive="true">
      <path
         style="opacity:0.41000001;color:#bebebe;fill:#000000;fill-opacity:1;fill-rule:nonzero;stroke:none;stroke-width:0;marker:none;visibility:visible;display:inline;overflow:visible;enable-background:accumulate"
         d="m 422,101 c -2.77,0 -5,2.23 -5,5 l 0,12 c 0,2.77 2.23,5 5,5 l 12,0 c 2.77,0 5,-2.23 5,-5 l 0,-12 c 0,-2.77 -2.23,-5 -5,-5 l -12,0 z m 0,1 12,0 c 2.2333,0 4,1.7667 4,4 l 0,12 c 0,2.2333 -1.7667,4 -4,4 l -12,0 c -2.2333,0 -4,-1.7667 -4,-4 l 0,-12 c 0,-2.2333 1.7667,-4 4,-4 z"
         id="rect4099"
         inkscape:connector-curvature="0" />
      <path
         style="opacity:0.41000001;color:#bebebe;fill:#000000;fill-opacity:1;fill-rule:nonzero;stroke:none;stroke-width:0;marker:none;visibility:visible;display:inline;overflow:visible;enable-background:accumulate"
         d="m 424,53 c -3.878,0 -7,3.122 -7,7 l 0,16 c 0,3.878 3.122,7 7,7 l 16,0 c 3.878,0 7,-3.122 7,-7 l 0,-16 c 0,-3.878 -3.122,-7 -7,-7 l -16,0 z m 0,1 16,0 c 3.3413,0 6,2.658703 6,6 l 0,16 c 0,3.341297 -2.6587,6 -6,6 l -16,0 c -3.3413,0 -6,-2.658703 -6,-6 l 0,-16 c 0,-3.341297 2.6587,-6 6,-6 z"
         id="rect4151"
         inkscape:connector-curvature="0" />
      <path
         style="opacity:0.41000001;color:#bebebe;fill:#000000;fill-opacity:1;fill-rule:nonzero;stroke:none;stroke-width:0;marker:none;visibility:visible;display:inline;overflow:visible;enable-background:accumulate"
         d="m 419,140 c -1.662,0 -3,1.338 -3,3 l 0,10 c 0,1.662 1.338,3 3,3 l 10,0 c 1.662,0 3,-1.338 3,-3 l 0,-10 c 0,-1.662 -1.338,-3 -3,-3 l -10,0 z m 0,1 10,0 c 1.1253,0 2,0.8747 2,2 l 0,10 c 0,1.1253 -0.8747,2 -2,2 l -10,0 c -1.1253,0 -2,-0.8747 -2,-2 l 0,-10 c 0,-1.1253 0.8747,-2 2,-2 z"
         id="rect4095"
         inkscape:connector-curvature="0" />
      <path
         style="opacity:0.41000001;color:#bebebe;fill:#000000;fill-opacity:1;fill-rule:nonzero;stroke:none;stroke-width:0;marker:none;visibility:visible;display:inline;overflow:visible;enable-background:accumulate"
         d="m 300,223 c -4.986,0 -9,4.014 -9,9 l 0,24 c 0,4.986 4.014,9 9,9 l 24,0 c 4.986,0 9,-4.014 9,-9 l 0,-24 c 0,-4.986 -4.014,-9 -9,-9 l -24,0 z m 0,1 24,0 c 4.4493,0 8,3.5507 8,8 l 0,24 c 0,4.4493 -3.5507,8 -8,8 l -24,0 c -4.4493,0 -8,-3.5507 -8,-8 l 0,-24 c 0,-4.4493 3.5507,-8 8,-8 z"
         id="rect4783"
         inkscape:connector-curvature="0" />
      <path
         style="opacity:0.41000001;color:#bebebe;fill:#000000;fill-opacity:1;fill-rule:nonzero;stroke:none;stroke-width:0;marker:none;visibility:visible;display:inline;overflow:visible;enable-background:accumulate"
         d="m 302.5,142 c -6.925,0 -12.5,5.575 -12.5,12.5 l 0,35 c 0,6.925 5.575,12.5 12.5,12.5 l 35,0 c 6.925,0 12.5,-5.575 12.5,-12.5 l 0,-35 c 0,-6.925 -5.575,-12.5 -12.5,-12.5 l -35,0 z m 0,1 35,0 c 6.3883,0 11.5,5.1117 11.5,11.5 l 0,35 c 0,6.3883 -5.1117,11.5 -11.5,11.5 l -35,0 c -6.3883,0 -11.5,-5.1117 -11.5,-11.5 l 0,-35 c 0,-6.3883 5.1117,-11.5 11.5,-11.5 z"
         id="rect4515"
         inkscape:connector-curvature="0" />
      <path
         style="opacity:0.41000001;color:#bebebe;fill:#000000;fill-opacity:1;fill-rule:nonzero;stroke:none;stroke-width:0;marker:none;visibility:visible;display:inline;overflow:visible;enable-background:accumulate"
         d="m 310,32 c -9.972,0 -18,8.028 -18,18 l 0,52 c 0,9.972 8.028,18 18,18 l 52,0 c 9.972,0 18,-8.028 18,-18 l 0,-52 c 0,-9.972 -8.028,-18 -18,-18 l -52,0 z m 0,1 52,0 c 9.4353,0 17,7.564703 17,17 l 0,52 c 0,9.4353 -7.5647,17 -17,17 l -52,0 c -9.4353,0 -17,-7.5647 -17,-17 l 0,-52 c 0,-9.435297 7.5647,-17 17,-17 z"
         id="rect4511"
         inkscape:connector-curvature="0" />
      <path
         style="opacity:0.41000001;color:#bebebe;fill:#000000;fill-opacity:1;fill-rule:nonzero;stroke:none;stroke-width:0;marker:none;visibility:visible;display:inline;overflow:visible;enable-background:accumulate"
         d="M 84,46 C 56.3,46 34,68.3 34,96 l 0,120 c 0,27.7 22.3,50 50,50 l 120,0 c 27.7,0 50,-22.3 50,-50 L 254,96 C 254,68.3 231.7,46 204,46 L 84,46 z m 0,1 120,0 c 27.1633,0 49,21.836703 49,49 l 0,120 c 0,27.1633 -21.8367,49 -49,49 L 84,265 C 56.836703,265 35,243.1633 35,216 L 35,96 C 35,68.836703 56.836703,47 84,47 z"
         id="rect4040"
         inkscape:connector-curvature="0" />
    </g>
  </g>
</svg>
